<svg width="40" height="40" viewBox="0 0 40 40" fill="none" xmlns="http://www.w3.org/2000/svg">
    <path d="M34.4352 32.2938C18.2433 39.9998 8.19438 33.5524 1.76177 29.6364C1.36372 29.3896 0.687182 29.6941 1.27417 30.3684C3.4172 32.9668 10.4403 39.2299 19.6076 39.2299C28.7811 39.2299 34.2386 34.2244 34.9213 33.3512C35.5993 32.4854 35.1204 32.0078 34.435 32.2938H34.4352ZM38.9827 29.7824C38.5478 29.2162 36.3387 29.1107 34.9483 29.2815C33.5559 29.4473 31.4658 30.2983 31.6475 30.8093C31.7407 31.0007 31.9311 30.9149 32.8876 30.8289C33.8468 30.7332 36.5339 30.3941 37.0938 31.126C37.6564 31.863 36.2368 35.3739 35.9775 35.9401C35.727 36.5063 36.0732 36.6523 36.5438 36.2752C37.0078 35.8982 37.8479 34.922 38.4117 33.5404C38.9716 32.1513 39.3132 30.2136 38.9827 29.7824Z" fill="#FF9900"/>
    <path fill-rule="evenodd" clip-rule="evenodd" d="M23.548 16.57C23.548 18.5919 23.599 20.2781 22.5771 22.0737C21.7522 23.5337 20.4456 24.4315 18.9857 24.4315C16.9929 24.4315 15.8323 22.9132 15.8323 20.6723C15.8323 16.2487 19.7958 15.4458 23.548 15.4458V16.57ZM28.7817 29.2201C28.4385 29.5266 27.9422 29.5486 27.5554 29.3441C25.8327 27.9135 25.526 27.2492 24.5772 25.8842C21.7304 28.7894 19.7157 29.658 16.0221 29.658C11.657 29.658 8.25537 26.9644 8.25537 21.5701C8.25537 17.3584 10.5403 14.4896 13.7883 13.0882C16.6061 11.8471 20.5405 11.6282 23.548 11.2852V10.6136C23.548 9.37989 23.6427 7.92002 22.9202 6.85436C22.285 5.89809 21.0734 5.50389 20.0075 5.50389C18.0295 5.50389 16.2629 6.51847 15.8323 8.62072C15.7446 9.08801 15.4016 9.54791 14.9345 9.56976L9.89772 9.02969C9.47444 8.9346 9.00731 8.59164 9.12409 7.94187C10.2847 1.8396 15.7957 0 20.7301 0C23.2558 0 26.5551 0.671619 28.5479 2.58415C31.0736 4.94182 30.8327 8.08789 30.8327 11.5114V19.5993C30.8327 22.03 31.84 23.0957 32.7889 24.4097C33.1246 24.8768 33.1977 25.439 32.7743 25.7892C31.7159 26.6724 29.8326 28.3149 28.7961 29.2347L28.7815 29.2201" fill="white"/>
    <path d="M34.4352 32.2938C18.2433 39.9998 8.19438 33.5524 1.76177 29.6364C1.36372 29.3896 0.687182 29.6941 1.27417 30.3684C3.4172 32.9668 10.4403 39.2299 19.6076 39.2299C28.7811 39.2299 34.2386 34.2244 34.9213 33.3512C35.5993 32.4854 35.1204 32.0078 34.435 32.2938H34.4352ZM38.9827 29.7824C38.5478 29.2162 36.3387 29.1107 34.9483 29.2815C33.5559 29.4473 31.4658 30.2983 31.6475 30.8093C31.7407 31.0007 31.9311 30.9149 32.8876 30.8289C33.8468 30.7332 36.5339 30.3941 37.0938 31.126C37.6564 31.863 36.2368 35.3739 35.9775 35.9401C35.727 36.5063 36.0732 36.6523 36.5438 36.2752C37.0078 35.8982 37.8479 34.922 38.4117 33.5404C38.9716 32.1513 39.3132 30.2136 38.9827 29.7824Z" fill="#FF9900"/>
    <path fill-rule="evenodd" clip-rule="evenodd" d="M23.548 16.57C23.548 18.5919 23.599 20.2781 22.5771 22.0737C21.7522 23.5337 20.4456 24.4315 18.9857 24.4315C16.9929 24.4315 15.8323 22.9132 15.8323 20.6723C15.8323 16.2487 19.7958 15.4458 23.548 15.4458V16.57ZM28.7817 29.2201C28.4385 29.5266 27.9422 29.5486 27.5554 29.3441C25.8327 27.9135 25.526 27.2492 24.5772 25.8842C21.7304 28.7894 19.7157 29.658 16.0221 29.658C11.657 29.658 8.25537 26.9644 8.25537 21.5701C8.25537 17.3584 10.5403 14.4896 13.7883 13.0882C16.6061 11.8471 20.5405 11.6282 23.548 11.2852V10.6136C23.548 9.37989 23.6427 7.92002 22.9202 6.85436C22.285 5.89809 21.0734 5.50389 20.0075 5.50389C18.0295 5.50389 16.2629 6.51847 15.8323 8.62072C15.7446 9.08801 15.4016 9.54791 14.9345 9.56976L9.89772 9.02969C9.47444 8.9346 9.00731 8.59164 9.12409 7.94187C10.2847 1.8396 15.7957 0 20.7301 0C23.2558 0 26.5551 0.671619 28.5479 2.58415C31.0736 4.94182 30.8327 8.08789 30.8327 11.5114V19.5993C30.8327 22.03 31.84 23.0957 32.7889 24.4097C33.1246 24.8768 33.1977 25.439 32.7743 25.7892C31.7159 26.6724 29.8326 28.3149 28.7961 29.2347L28.7815 29.2201" fill="black"/>
</svg>
