<svg width="40" height="40" viewBox="0 0 40 40" fill="none" xmlns="http://www.w3.org/2000/svg">
    <path d="M4.31948 23.9416C4.31948 25.4475 4.65472 26.6037 5.09288 27.3031C5.66737 28.2193 6.52423 28.6074 7.39778 28.6074C8.52449 28.6074 9.55522 28.3318 11.5416 25.623C13.1329 23.4519 15.008 20.4044 16.2696 18.4939L18.4062 15.2572C19.8904 13.0093 21.6083 10.5104 23.5779 8.81654C25.1859 7.43406 26.9205 6.66602 28.6662 6.66602C31.5971 6.66602 34.3888 8.34063 36.5254 11.4814C38.8637 14.9211 39.9987 19.2537 39.9987 23.7249C39.9987 26.3828 39.4674 28.3359 38.5632 29.8788C37.6897 31.371 35.9871 32.8619 33.123 32.8619V28.6074C35.5754 28.6074 36.1874 26.3856 36.1874 23.8428C36.1874 20.2193 35.3305 16.198 33.4429 13.3247C32.1034 11.2866 30.3674 10.0413 28.4576 10.0413C26.3919 10.0413 24.7297 11.5774 22.8616 14.3163C21.8684 15.7715 20.8488 17.5448 19.704 19.5459L18.4437 21.7471C15.9121 26.173 15.2709 27.1811 14.005 28.8447C11.7864 31.7578 9.89185 32.8619 7.39778 32.8619C4.43911 32.8619 2.56821 31.5987 1.4095 29.695C0.463619 28.1439 -0.000976562 26.1085 -0.000976562 23.7893L4.31948 23.9416Z" fill="#0081FB"/>
    <path d="M3.40527 11.7817C5.38606 8.77128 8.24458 6.66602 11.5232 6.66602C13.4219 6.66602 15.3095 7.22011 17.2805 8.80694C19.4366 10.5419 21.7345 13.3988 24.6014 18.1072L25.6293 19.7969C28.1109 23.873 29.5228 25.97 30.349 26.9589C31.4118 28.2289 32.1559 28.6074 33.1227 28.6074C35.575 28.6074 36.1871 26.3856 36.1871 23.8428L39.9984 23.7249C39.9984 26.3828 39.4671 28.3359 38.5629 29.8788C37.6894 31.371 35.9868 32.8619 33.1227 32.8619C31.3422 32.8619 29.7648 32.4806 28.0205 30.8581C26.6796 29.6128 25.1119 27.4005 23.9059 25.4118L20.3185 19.5034C18.5185 16.5381 16.8674 14.3273 15.9118 13.3261C14.8838 12.2494 13.5624 10.9492 11.4536 10.9492C9.74686 10.9492 8.29743 12.1301 7.08448 13.9364L3.40527 11.7817Z" fill="url(#paint0_linear_561_118271)"/>
    <path d="M11.4539 10.9492C9.74718 10.9492 8.29776 12.1301 7.0848 13.9364C5.36969 16.4888 4.31948 20.2906 4.31948 23.9416C4.31948 25.4475 4.65472 26.6037 5.09288 27.3031L1.4095 29.695C0.463619 28.1439 -0.000976562 26.1085 -0.000976562 23.7893C-0.000976562 19.5719 1.17303 15.1762 3.40559 11.7817C5.38638 8.77128 8.2449 6.66602 11.5235 6.66602L11.4539 10.9492Z" fill="url(#paint1_linear_561_118271)"/>
    <defs>
        <linearGradient id="paint0_linear_561_118271" x1="8.48383" y1="22.7127" x2="36.0237" y2="24.1234" gradientUnits="userSpaceOnUse">
            <stop stop-color="#0064E1"/>
            <stop offset="0.4" stop-color="#0064E1"/>
            <stop offset="0.83" stop-color="#0073EE"/>
            <stop offset="1" stop-color="#0082FB"/>
        </linearGradient>
        <linearGradient id="paint1_linear_561_118271" x1="6.25854" y1="25.73" x2="6.25854" y2="15.718" gradientUnits="userSpaceOnUse">
            <stop stop-color="#0082FB"/>
            <stop offset="1" stop-color="#0064E0"/>
        </linearGradient>
    </defs>
</svg>
